<mxfile host="65bd71144e" modified="2020-10-29T13:11:13.764Z" agent="5.0 (Windows NT 10.0; Win64; x64) AppleWebKit/537.36 (KHTML, like Gecko) Code/1.50.1 Chrome/83.0.4103.122 Electron/9.2.1 Safari/537.36" etag="rfisqNQ9H5K_DxhusZjL" version="13.6.5">
    <diagram id="ZoalV2rKgfYRB4F1HgK3" name="Page-1">
        <mxGraphModel dx="1062" dy="812" grid="1" gridSize="10" guides="1" tooltips="1" connect="1" arrows="1" fold="1" page="0" pageScale="1" pageWidth="827" pageHeight="1169" math="0" shadow="0">
            <root>
                <mxCell id="0"/>
                <mxCell id="1" parent="0"/>
                <mxCell id="80" style="edgeStyle=orthogonalEdgeStyle;rounded=1;orthogonalLoop=1;jettySize=auto;html=1;exitX=1;exitY=0.5;exitDx=0;exitDy=0;entryX=0;entryY=0.5;entryDx=0;entryDy=0;endArrow=ERmany;endFill=0;startArrow=ERone;startFill=0;" parent="1" source="20" target="71" edge="1">
                    <mxGeometry relative="1" as="geometry"/>
                </mxCell>
                <mxCell id="81" style="edgeStyle=orthogonalEdgeStyle;rounded=1;orthogonalLoop=1;jettySize=auto;html=1;exitX=1;exitY=0.333;exitDx=0;exitDy=0;startArrow=ERmany;startFill=0;endArrow=ERone;endFill=0;exitPerimeter=0;" parent="1" source="74" target="46" edge="1">
                    <mxGeometry relative="1" as="geometry"/>
                </mxCell>
                <mxCell id="116" style="edgeStyle=orthogonalEdgeStyle;rounded=1;orthogonalLoop=1;jettySize=auto;html=1;startArrow=ERmany;startFill=0;endArrow=ERone;endFill=0;exitX=1;exitY=0.5;exitDx=0;exitDy=0;entryX=0;entryY=0.5;entryDx=0;entryDy=0;" parent="1" source="110" target="94" edge="1">
                    <mxGeometry relative="1" as="geometry">
                        <mxPoint x="800" y="280" as="sourcePoint"/>
                        <mxPoint x="857" y="215" as="targetPoint"/>
                    </mxGeometry>
                </mxCell>
                <mxCell id="117" style="edgeStyle=orthogonalEdgeStyle;rounded=1;orthogonalLoop=1;jettySize=auto;html=1;endArrow=ERmany;endFill=0;startArrow=ERone;startFill=0;exitX=1;exitY=0.5;exitDx=0;exitDy=0;entryX=0;entryY=0.5;entryDx=0;entryDy=0;" parent="1" source="20" target="110" edge="1">
                    <mxGeometry relative="1" as="geometry">
                        <mxPoint x="460" y="240" as="sourcePoint"/>
                        <mxPoint x="500" y="440" as="targetPoint"/>
                        <Array as="points">
                            <mxPoint x="480" y="205"/>
                            <mxPoint x="480" y="435"/>
                        </Array>
                    </mxGeometry>
                </mxCell>
                <mxCell id="132" style="edgeStyle=orthogonalEdgeStyle;rounded=1;orthogonalLoop=1;jettySize=auto;html=1;exitX=1;exitY=0.5;exitDx=0;exitDy=0;entryX=1;entryY=0.5;entryDx=0;entryDy=0;startArrow=ERone;startFill=0;endArrow=ERone;endFill=0;" parent="1" source="129" target="94" edge="1">
                    <mxGeometry relative="1" as="geometry"/>
                </mxCell>
                <mxCell id="144" style="edgeStyle=orthogonalEdgeStyle;rounded=1;orthogonalLoop=1;jettySize=auto;html=1;exitX=1;exitY=0.5;exitDx=0;exitDy=0;entryX=0;entryY=0.5;entryDx=0;entryDy=0;startArrow=ERmany;startFill=0;endArrow=ERone;endFill=0;" parent="1" source="141" target="120" edge="1">
                    <mxGeometry relative="1" as="geometry">
                        <Array as="points">
                            <mxPoint x="800" y="705"/>
                            <mxPoint x="800" y="645"/>
                        </Array>
                    </mxGeometry>
                </mxCell>
                <mxCell id="145" style="edgeStyle=orthogonalEdgeStyle;rounded=1;orthogonalLoop=1;jettySize=auto;html=1;exitX=1;exitY=0.5;exitDx=0;exitDy=0;startArrow=ERone;startFill=0;endArrow=ERoneToMany;endFill=0;entryX=0;entryY=0.5;entryDx=0;entryDy=0;" parent="1" source="20" target="138" edge="1">
                    <mxGeometry relative="1" as="geometry">
                        <mxPoint x="480" y="440" as="targetPoint"/>
                    </mxGeometry>
                </mxCell>
                <mxCell id="19" value="Papers" style="shape=table;html=1;whiteSpace=wrap;startSize=30;container=1;collapsible=0;childLayout=tableLayout;fixedRows=1;rowLines=0;fontStyle=1;align=center;" parent="1" vertex="1">
                    <mxGeometry x="200" y="160" width="240" height="330" as="geometry"/>
                </mxCell>
                <mxCell id="20" value="" style="shape=partialRectangle;html=1;whiteSpace=wrap;collapsible=0;dropTarget=0;pointerEvents=0;fillColor=none;top=0;left=0;bottom=1;right=0;points=[[0,0.5],[1,0.5]];portConstraint=eastwest;" parent="19" vertex="1">
                    <mxGeometry y="30" width="240" height="30" as="geometry"/>
                </mxCell>
                <mxCell id="21" value="PK" style="shape=partialRectangle;html=1;whiteSpace=wrap;connectable=0;fillColor=none;top=0;left=0;bottom=0;right=0;overflow=hidden;" parent="20" vertex="1">
                    <mxGeometry width="30" height="30" as="geometry"/>
                </mxCell>
                <mxCell id="22" value="id : int (incremental)" style="shape=partialRectangle;html=1;whiteSpace=wrap;connectable=0;fillColor=none;top=0;left=0;bottom=0;right=0;align=left;spacingLeft=6;overflow=hidden;" parent="20" vertex="1">
                    <mxGeometry x="30" width="210" height="30" as="geometry"/>
                </mxCell>
                <mxCell id="23" value="" style="shape=partialRectangle;html=1;whiteSpace=wrap;collapsible=0;dropTarget=0;pointerEvents=0;fillColor=none;top=0;left=0;bottom=0;right=0;points=[[0,0.5],[1,0.5]];portConstraint=eastwest;" parent="19" vertex="1">
                    <mxGeometry y="60" width="240" height="30" as="geometry"/>
                </mxCell>
                <mxCell id="24" value="FK" style="shape=partialRectangle;html=1;whiteSpace=wrap;connectable=0;fillColor=none;top=0;left=0;bottom=0;right=0;overflow=hidden;" parent="23" vertex="1">
                    <mxGeometry width="30" height="30" as="geometry"/>
                </mxCell>
                <mxCell id="25" value="title : string" style="shape=partialRectangle;html=1;whiteSpace=wrap;connectable=0;fillColor=none;top=0;left=0;bottom=0;right=0;align=left;spacingLeft=6;overflow=hidden;" parent="23" vertex="1">
                    <mxGeometry x="30" width="210" height="30" as="geometry"/>
                </mxCell>
                <mxCell id="219" value="" style="shape=partialRectangle;html=1;whiteSpace=wrap;collapsible=0;dropTarget=0;pointerEvents=0;fillColor=none;top=0;left=0;bottom=0;right=0;points=[[0,0.5],[1,0.5]];portConstraint=eastwest;" vertex="1" parent="19">
                    <mxGeometry y="90" width="240" height="30" as="geometry"/>
                </mxCell>
                <mxCell id="220" value="" style="shape=partialRectangle;html=1;whiteSpace=wrap;connectable=0;fillColor=none;top=0;left=0;bottom=0;right=0;overflow=hidden;" vertex="1" parent="219">
                    <mxGeometry width="30" height="30" as="geometry"/>
                </mxCell>
                <mxCell id="221" value="year : int (nullable)" style="shape=partialRectangle;html=1;whiteSpace=wrap;connectable=0;fillColor=none;top=0;left=0;bottom=0;right=0;align=left;spacingLeft=6;overflow=hidden;" vertex="1" parent="219">
                    <mxGeometry x="30" width="210" height="30" as="geometry"/>
                </mxCell>
                <mxCell id="170" value="" style="shape=partialRectangle;html=1;whiteSpace=wrap;collapsible=0;dropTarget=0;pointerEvents=0;fillColor=none;top=0;left=0;bottom=0;right=0;points=[[0,0.5],[1,0.5]];portConstraint=eastwest;" parent="19" vertex="1">
                    <mxGeometry y="120" width="240" height="30" as="geometry"/>
                </mxCell>
                <mxCell id="171" value="" style="shape=partialRectangle;html=1;whiteSpace=wrap;connectable=0;fillColor=none;top=0;left=0;bottom=0;right=0;overflow=hidden;" parent="170" vertex="1">
                    <mxGeometry width="30" height="30" as="geometry"/>
                </mxCell>
                <mxCell id="172" value="filepath : string (nullable)" style="shape=partialRectangle;html=1;whiteSpace=wrap;connectable=0;fillColor=none;top=0;left=0;bottom=0;right=0;align=left;spacingLeft=6;overflow=hidden;" parent="170" vertex="1">
                    <mxGeometry x="30" width="210" height="30" as="geometry"/>
                </mxCell>
                <mxCell id="173" value="" style="shape=partialRectangle;html=1;whiteSpace=wrap;collapsible=0;dropTarget=0;pointerEvents=0;fillColor=none;top=0;left=0;bottom=0;right=0;points=[[0,0.5],[1,0.5]];portConstraint=eastwest;" parent="19" vertex="1">
                    <mxGeometry y="150" width="240" height="30" as="geometry"/>
                </mxCell>
                <mxCell id="174" value="" style="shape=partialRectangle;html=1;whiteSpace=wrap;connectable=0;fillColor=none;top=0;left=0;bottom=0;right=0;overflow=hidden;" parent="173" vertex="1">
                    <mxGeometry width="30" height="30" as="geometry"/>
                </mxCell>
                <mxCell id="175" value="bibtex : longText (nullable)" style="shape=partialRectangle;html=1;whiteSpace=wrap;connectable=0;fillColor=none;top=0;left=0;bottom=0;right=0;align=left;spacingLeft=6;overflow=hidden;" parent="173" vertex="1">
                    <mxGeometry x="30" width="210" height="30" as="geometry"/>
                </mxCell>
                <mxCell id="36" value="" style="shape=partialRectangle;html=1;whiteSpace=wrap;collapsible=0;dropTarget=0;pointerEvents=0;fillColor=none;top=0;left=0;bottom=0;right=0;points=[[0,0.5],[1,0.5]];portConstraint=eastwest;" parent="19" vertex="1">
                    <mxGeometry y="180" width="240" height="30" as="geometry"/>
                </mxCell>
                <mxCell id="37" value="" style="shape=partialRectangle;html=1;whiteSpace=wrap;connectable=0;fillColor=none;top=0;left=0;bottom=0;right=0;overflow=hidden;" parent="36" vertex="1">
                    <mxGeometry width="30" height="30" as="geometry"/>
                </mxCell>
                <mxCell id="38" value="doi : string (nullable)" style="shape=partialRectangle;html=1;whiteSpace=wrap;connectable=0;fillColor=none;top=0;left=0;bottom=0;right=0;align=left;spacingLeft=6;overflow=hidden;" parent="36" vertex="1">
                    <mxGeometry x="30" width="210" height="30" as="geometry"/>
                </mxCell>
                <mxCell id="33" value="" style="shape=partialRectangle;html=1;whiteSpace=wrap;collapsible=0;dropTarget=0;pointerEvents=0;fillColor=none;top=0;left=0;bottom=0;right=0;points=[[0,0.5],[1,0.5]];portConstraint=eastwest;" parent="19" vertex="1">
                    <mxGeometry y="210" width="240" height="30" as="geometry"/>
                </mxCell>
                <mxCell id="34" value="" style="shape=partialRectangle;html=1;whiteSpace=wrap;connectable=0;fillColor=none;top=0;left=0;bottom=0;right=0;overflow=hidden;" parent="33" vertex="1">
                    <mxGeometry width="30" height="30" as="geometry"/>
                </mxCell>
                <mxCell id="35" value="description : longText (nullable)" style="shape=partialRectangle;html=1;whiteSpace=wrap;connectable=0;fillColor=none;top=0;left=0;bottom=0;right=0;align=left;spacingLeft=6;overflow=hidden;" parent="33" vertex="1">
                    <mxGeometry x="30" width="210" height="30" as="geometry"/>
                </mxCell>
                <mxCell id="64" value="" style="shape=partialRectangle;html=1;whiteSpace=wrap;collapsible=0;dropTarget=0;pointerEvents=0;fillColor=none;top=0;left=0;bottom=0;right=0;points=[[0,0.5],[1,0.5]];portConstraint=eastwest;" parent="19" vertex="1">
                    <mxGeometry y="240" width="240" height="30" as="geometry"/>
                </mxCell>
                <mxCell id="65" value="" style="shape=partialRectangle;html=1;whiteSpace=wrap;connectable=0;fillColor=none;top=0;left=0;bottom=0;right=0;overflow=hidden;" parent="64" vertex="1">
                    <mxGeometry width="30" height="30" as="geometry"/>
                </mxCell>
                <mxCell id="66" value="isread : boolean (default : false)" style="shape=partialRectangle;html=1;whiteSpace=wrap;connectable=0;fillColor=none;top=0;left=0;bottom=0;right=0;align=left;spacingLeft=6;overflow=hidden;" parent="64" vertex="1">
                    <mxGeometry x="30" width="210" height="30" as="geometry"/>
                </mxCell>
                <mxCell id="118" style="edgeStyle=orthogonalEdgeStyle;rounded=1;orthogonalLoop=1;jettySize=auto;html=1;exitX=1;exitY=0.5;exitDx=0;exitDy=0;startArrow=ERmany;startFill=0;endArrow=ERone;endFill=0;" parent="19" source="33" target="33" edge="1">
                    <mxGeometry relative="1" as="geometry"/>
                </mxCell>
                <mxCell id="182" value="" style="shape=partialRectangle;html=1;whiteSpace=wrap;collapsible=0;dropTarget=0;pointerEvents=0;fillColor=none;top=0;left=0;bottom=0;right=0;points=[[0,0.5],[1,0.5]];portConstraint=eastwest;" parent="19" vertex="1">
                    <mxGeometry y="270" width="240" height="30" as="geometry"/>
                </mxCell>
                <mxCell id="183" value="" style="shape=partialRectangle;html=1;whiteSpace=wrap;connectable=0;fillColor=none;top=0;left=0;bottom=0;right=0;overflow=hidden;" parent="182" vertex="1">
                    <mxGeometry width="30" height="30" as="geometry"/>
                </mxCell>
                <mxCell id="184" value="created_at : date" style="shape=partialRectangle;html=1;whiteSpace=wrap;connectable=0;fillColor=none;top=0;left=0;bottom=0;right=0;align=left;spacingLeft=6;overflow=hidden;" parent="182" vertex="1">
                    <mxGeometry x="30" width="210" height="30" as="geometry"/>
                </mxCell>
                <mxCell id="185" value="" style="shape=partialRectangle;html=1;whiteSpace=wrap;collapsible=0;dropTarget=0;pointerEvents=0;fillColor=none;top=0;left=0;bottom=0;right=0;points=[[0,0.5],[1,0.5]];portConstraint=eastwest;" parent="19" vertex="1">
                    <mxGeometry y="300" width="240" height="30" as="geometry"/>
                </mxCell>
                <mxCell id="186" value="" style="shape=partialRectangle;html=1;whiteSpace=wrap;connectable=0;fillColor=none;top=0;left=0;bottom=0;right=0;overflow=hidden;" parent="185" vertex="1">
                    <mxGeometry width="30" height="30" as="geometry"/>
                </mxCell>
                <mxCell id="187" value="updated_at : date" style="shape=partialRectangle;html=1;whiteSpace=wrap;connectable=0;fillColor=none;top=0;left=0;bottom=0;right=0;align=left;spacingLeft=6;overflow=hidden;" parent="185" vertex="1">
                    <mxGeometry x="30" width="210" height="30" as="geometry"/>
                </mxCell>
                <mxCell id="162" style="edgeStyle=orthogonalEdgeStyle;rounded=1;orthogonalLoop=1;jettySize=auto;html=1;exitX=0;exitY=0.5;exitDx=0;exitDy=0;startArrow=ERone;startFill=0;endArrow=ERone;endFill=0;entryX=0;entryY=0.5;entryDx=0;entryDy=0;" parent="1" source="156" target="46" edge="1">
                    <mxGeometry relative="1" as="geometry">
                        <Array as="points">
                            <mxPoint x="800" y="35"/>
                            <mxPoint x="800" y="155"/>
                        </Array>
                        <mxPoint x="820" y="170" as="targetPoint"/>
                    </mxGeometry>
                </mxCell>
                <mxCell id="163" style="edgeStyle=orthogonalEdgeStyle;rounded=1;orthogonalLoop=1;jettySize=auto;html=1;exitX=1;exitY=0.5;exitDx=0;exitDy=0;startArrow=ERone;startFill=0;endArrow=ERone;endFill=0;entryX=1;entryY=0.5;entryDx=0;entryDy=0;" parent="1" source="159" target="46" edge="1">
                    <mxGeometry relative="1" as="geometry">
                        <mxPoint x="1110" y="180" as="targetPoint"/>
                    </mxGeometry>
                </mxCell>
                <mxCell id="152" value="ClassificationLabelManagements" style="shape=table;html=1;whiteSpace=wrap;startSize=30;container=1;collapsible=0;childLayout=tableLayout;fixedRows=1;rowLines=0;fontStyle=1;align=center;" parent="1" vertex="1">
                    <mxGeometry x="840" y="-40" width="240" height="120" as="geometry"/>
                </mxCell>
                <mxCell id="153" value="" style="shape=partialRectangle;html=1;whiteSpace=wrap;collapsible=0;dropTarget=0;pointerEvents=0;fillColor=none;top=0;left=0;bottom=1;right=0;points=[[0,0.5],[1,0.5]];portConstraint=eastwest;" parent="152" vertex="1">
                    <mxGeometry y="30" width="240" height="30" as="geometry"/>
                </mxCell>
                <mxCell id="154" value="PK" style="shape=partialRectangle;html=1;whiteSpace=wrap;connectable=0;fillColor=none;top=0;left=0;bottom=0;right=0;overflow=hidden;" parent="153" vertex="1">
                    <mxGeometry width="30" height="30" as="geometry"/>
                </mxCell>
                <mxCell id="155" value="id : int (incremental)" style="shape=partialRectangle;html=1;whiteSpace=wrap;connectable=0;fillColor=none;top=0;left=0;bottom=0;right=0;align=left;spacingLeft=6;overflow=hidden;" parent="153" vertex="1">
                    <mxGeometry x="30" width="210" height="30" as="geometry"/>
                </mxCell>
                <mxCell id="156" value="" style="shape=partialRectangle;html=1;whiteSpace=wrap;collapsible=0;dropTarget=0;pointerEvents=0;fillColor=none;top=0;left=0;bottom=0;right=0;points=[[0,0.5],[1,0.5]];portConstraint=eastwest;" parent="152" vertex="1">
                    <mxGeometry y="60" width="240" height="30" as="geometry"/>
                </mxCell>
                <mxCell id="157" value="FK" style="shape=partialRectangle;html=1;whiteSpace=wrap;connectable=0;fillColor=none;top=0;left=0;bottom=0;right=0;overflow=hidden;" parent="156" vertex="1">
                    <mxGeometry width="30" height="30" as="geometry"/>
                </mxCell>
                <mxCell id="158" value="classification_id : int" style="shape=partialRectangle;html=1;whiteSpace=wrap;connectable=0;fillColor=none;top=0;left=0;bottom=0;right=0;align=left;spacingLeft=6;overflow=hidden;" parent="156" vertex="1">
                    <mxGeometry x="30" width="210" height="30" as="geometry"/>
                </mxCell>
                <mxCell id="159" value="" style="shape=partialRectangle;html=1;whiteSpace=wrap;collapsible=0;dropTarget=0;pointerEvents=0;fillColor=none;top=0;left=0;bottom=0;right=0;points=[[0,0.5],[1,0.5]];portConstraint=eastwest;" parent="152" vertex="1">
                    <mxGeometry y="90" width="240" height="30" as="geometry"/>
                </mxCell>
                <mxCell id="160" value="" style="shape=partialRectangle;html=1;whiteSpace=wrap;connectable=0;fillColor=none;top=0;left=0;bottom=0;right=0;overflow=hidden;" parent="159" vertex="1">
                    <mxGeometry width="30" height="30" as="geometry"/>
                </mxCell>
                <mxCell id="161" value="sub_classification_id : int" style="shape=partialRectangle;html=1;whiteSpace=wrap;connectable=0;fillColor=none;top=0;left=0;bottom=0;right=0;align=left;spacingLeft=6;overflow=hidden;" parent="159" vertex="1">
                    <mxGeometry x="30" width="210" height="30" as="geometry"/>
                </mxCell>
                <mxCell id="45" value="Classifications" style="shape=table;html=1;whiteSpace=wrap;startSize=30;container=1;collapsible=0;childLayout=tableLayout;fixedRows=1;rowLines=0;fontStyle=1;align=center;" parent="1" vertex="1">
                    <mxGeometry x="840" y="110" width="240" height="210" as="geometry"/>
                </mxCell>
                <mxCell id="46" value="" style="shape=partialRectangle;html=1;whiteSpace=wrap;collapsible=0;dropTarget=0;pointerEvents=0;fillColor=none;top=0;left=0;bottom=1;right=0;points=[[0,0.5],[1,0.5]];portConstraint=eastwest;" parent="45" vertex="1">
                    <mxGeometry y="30" width="240" height="30" as="geometry"/>
                </mxCell>
                <mxCell id="47" value="PK" style="shape=partialRectangle;html=1;whiteSpace=wrap;connectable=0;fillColor=none;top=0;left=0;bottom=0;right=0;overflow=hidden;" parent="46" vertex="1">
                    <mxGeometry width="30" height="30" as="geometry"/>
                </mxCell>
                <mxCell id="48" value="id : int (incremental9" style="shape=partialRectangle;html=1;whiteSpace=wrap;connectable=0;fillColor=none;top=0;left=0;bottom=0;right=0;align=left;spacingLeft=6;overflow=hidden;" parent="46" vertex="1">
                    <mxGeometry x="30" width="210" height="30" as="geometry"/>
                </mxCell>
                <mxCell id="49" value="" style="shape=partialRectangle;html=1;whiteSpace=wrap;collapsible=0;dropTarget=0;pointerEvents=0;fillColor=none;top=0;left=0;bottom=0;right=0;points=[[0,0.5],[1,0.5]];portConstraint=eastwest;" parent="45" vertex="1">
                    <mxGeometry y="60" width="240" height="30" as="geometry"/>
                </mxCell>
                <mxCell id="50" value="FK" style="shape=partialRectangle;html=1;whiteSpace=wrap;connectable=0;fillColor=none;top=0;left=0;bottom=0;right=0;overflow=hidden;" parent="49" vertex="1">
                    <mxGeometry width="30" height="30" as="geometry"/>
                </mxCell>
                <mxCell id="51" value="name : string" style="shape=partialRectangle;html=1;whiteSpace=wrap;connectable=0;fillColor=none;top=0;left=0;bottom=0;right=0;align=left;spacingLeft=6;overflow=hidden;" parent="49" vertex="1">
                    <mxGeometry x="30" width="210" height="30" as="geometry"/>
                </mxCell>
                <mxCell id="58" value="" style="shape=partialRectangle;html=1;whiteSpace=wrap;collapsible=0;dropTarget=0;pointerEvents=0;fillColor=none;top=0;left=0;bottom=0;right=0;points=[[0,0.5],[1,0.5]];portConstraint=eastwest;" parent="45" vertex="1">
                    <mxGeometry y="90" width="240" height="30" as="geometry"/>
                </mxCell>
                <mxCell id="59" value="" style="shape=partialRectangle;html=1;whiteSpace=wrap;connectable=0;fillColor=none;top=0;left=0;bottom=0;right=0;overflow=hidden;" parent="58" vertex="1">
                    <mxGeometry width="30" height="30" as="geometry"/>
                </mxCell>
                <mxCell id="60" value="description : longText (nullable)" style="shape=partialRectangle;html=1;whiteSpace=wrap;connectable=0;fillColor=none;top=0;left=0;bottom=0;right=0;align=left;spacingLeft=6;overflow=hidden;" parent="58" vertex="1">
                    <mxGeometry x="30" width="210" height="30" as="geometry"/>
                </mxCell>
                <mxCell id="176" value="" style="shape=partialRectangle;html=1;whiteSpace=wrap;collapsible=0;dropTarget=0;pointerEvents=0;fillColor=none;top=0;left=0;bottom=0;right=0;points=[[0,0.5],[1,0.5]];portConstraint=eastwest;" parent="45" vertex="1">
                    <mxGeometry y="120" width="240" height="30" as="geometry"/>
                </mxCell>
                <mxCell id="177" value="" style="shape=partialRectangle;html=1;whiteSpace=wrap;connectable=0;fillColor=none;top=0;left=0;bottom=0;right=0;overflow=hidden;" parent="176" vertex="1">
                    <mxGeometry width="30" height="30" as="geometry"/>
                </mxCell>
                <mxCell id="178" value="order : int (default : 0)" style="shape=partialRectangle;html=1;whiteSpace=wrap;connectable=0;fillColor=none;top=0;left=0;bottom=0;right=0;align=left;spacingLeft=6;overflow=hidden;" parent="176" vertex="1">
                    <mxGeometry x="30" width="210" height="30" as="geometry"/>
                </mxCell>
                <mxCell id="201" value="" style="shape=partialRectangle;html=1;whiteSpace=wrap;collapsible=0;dropTarget=0;pointerEvents=0;fillColor=none;top=0;left=0;bottom=0;right=0;points=[[0,0.5],[1,0.5]];portConstraint=eastwest;" parent="45" vertex="1">
                    <mxGeometry y="150" width="240" height="30" as="geometry"/>
                </mxCell>
                <mxCell id="202" value="" style="shape=partialRectangle;html=1;whiteSpace=wrap;connectable=0;fillColor=none;top=0;left=0;bottom=0;right=0;overflow=hidden;" parent="201" vertex="1">
                    <mxGeometry width="30" height="30" as="geometry"/>
                </mxCell>
                <mxCell id="203" value="created_at : date" style="shape=partialRectangle;html=1;whiteSpace=wrap;connectable=0;fillColor=none;top=0;left=0;bottom=0;right=0;align=left;spacingLeft=6;overflow=hidden;" parent="201" vertex="1">
                    <mxGeometry x="30" width="210" height="30" as="geometry"/>
                </mxCell>
                <mxCell id="204" value="" style="shape=partialRectangle;html=1;whiteSpace=wrap;collapsible=0;dropTarget=0;pointerEvents=0;fillColor=none;top=0;left=0;bottom=0;right=0;points=[[0,0.5],[1,0.5]];portConstraint=eastwest;" parent="45" vertex="1">
                    <mxGeometry y="180" width="240" height="30" as="geometry"/>
                </mxCell>
                <mxCell id="205" value="" style="shape=partialRectangle;html=1;whiteSpace=wrap;connectable=0;fillColor=none;top=0;left=0;bottom=0;right=0;overflow=hidden;" parent="204" vertex="1">
                    <mxGeometry width="30" height="30" as="geometry"/>
                </mxCell>
                <mxCell id="206" value="updated_at : date" style="shape=partialRectangle;html=1;whiteSpace=wrap;connectable=0;fillColor=none;top=0;left=0;bottom=0;right=0;align=left;spacingLeft=6;overflow=hidden;" parent="204" vertex="1">
                    <mxGeometry x="30" width="210" height="30" as="geometry"/>
                </mxCell>
                <mxCell id="119" value="Authors" style="shape=table;html=1;whiteSpace=wrap;startSize=30;container=1;collapsible=0;childLayout=tableLayout;fixedRows=1;rowLines=0;fontStyle=1;align=center;" parent="1" vertex="1">
                    <mxGeometry x="840" y="600" width="240" height="210" as="geometry"/>
                </mxCell>
                <mxCell id="120" value="" style="shape=partialRectangle;html=1;whiteSpace=wrap;collapsible=0;dropTarget=0;pointerEvents=0;fillColor=none;top=0;left=0;bottom=1;right=0;points=[[0,0.5],[1,0.5]];portConstraint=eastwest;" parent="119" vertex="1">
                    <mxGeometry y="30" width="240" height="30" as="geometry"/>
                </mxCell>
                <mxCell id="121" value="PK" style="shape=partialRectangle;html=1;whiteSpace=wrap;connectable=0;fillColor=none;top=0;left=0;bottom=0;right=0;overflow=hidden;" parent="120" vertex="1">
                    <mxGeometry width="30" height="30" as="geometry"/>
                </mxCell>
                <mxCell id="122" value="id : int (incremental)" style="shape=partialRectangle;html=1;whiteSpace=wrap;connectable=0;fillColor=none;top=0;left=0;bottom=0;right=0;align=left;spacingLeft=6;overflow=hidden;" parent="120" vertex="1">
                    <mxGeometry x="30" width="210" height="30" as="geometry"/>
                </mxCell>
                <mxCell id="123" value="" style="shape=partialRectangle;html=1;whiteSpace=wrap;collapsible=0;dropTarget=0;pointerEvents=0;fillColor=none;top=0;left=0;bottom=0;right=0;points=[[0,0.5],[1,0.5]];portConstraint=eastwest;" parent="119" vertex="1">
                    <mxGeometry y="60" width="240" height="30" as="geometry"/>
                </mxCell>
                <mxCell id="124" value="FK" style="shape=partialRectangle;html=1;whiteSpace=wrap;connectable=0;fillColor=none;top=0;left=0;bottom=0;right=0;overflow=hidden;" parent="123" vertex="1">
                    <mxGeometry width="30" height="30" as="geometry"/>
                </mxCell>
                <mxCell id="125" value="name : string" style="shape=partialRectangle;html=1;whiteSpace=wrap;connectable=0;fillColor=none;top=0;left=0;bottom=0;right=0;align=left;spacingLeft=6;overflow=hidden;" parent="123" vertex="1">
                    <mxGeometry x="30" width="210" height="30" as="geometry"/>
                </mxCell>
                <mxCell id="126" value="" style="shape=partialRectangle;html=1;whiteSpace=wrap;collapsible=0;dropTarget=0;pointerEvents=0;fillColor=none;top=0;left=0;bottom=0;right=0;points=[[0,0.5],[1,0.5]];portConstraint=eastwest;" parent="119" vertex="1">
                    <mxGeometry y="90" width="240" height="30" as="geometry"/>
                </mxCell>
                <mxCell id="127" value="" style="shape=partialRectangle;html=1;whiteSpace=wrap;connectable=0;fillColor=none;top=0;left=0;bottom=0;right=0;overflow=hidden;" parent="126" vertex="1">
                    <mxGeometry width="30" height="30" as="geometry"/>
                </mxCell>
                <mxCell id="128" value="descrpition : longText (nullable)" style="shape=partialRectangle;html=1;whiteSpace=wrap;connectable=0;fillColor=none;top=0;left=0;bottom=0;right=0;align=left;spacingLeft=6;overflow=hidden;" parent="126" vertex="1">
                    <mxGeometry x="30" width="210" height="30" as="geometry"/>
                </mxCell>
                <mxCell id="129" value="" style="shape=partialRectangle;html=1;whiteSpace=wrap;collapsible=0;dropTarget=0;pointerEvents=0;fillColor=none;top=0;left=0;bottom=0;right=0;points=[[0,0.5],[1,0.5]];portConstraint=eastwest;" parent="119" vertex="1">
                    <mxGeometry y="120" width="240" height="30" as="geometry"/>
                </mxCell>
                <mxCell id="130" value="" style="shape=partialRectangle;html=1;whiteSpace=wrap;connectable=0;fillColor=none;top=0;left=0;bottom=0;right=0;overflow=hidden;" parent="129" vertex="1">
                    <mxGeometry width="30" height="30" as="geometry"/>
                </mxCell>
                <mxCell id="131" value="affiriation_id : int (nullable)" style="shape=partialRectangle;html=1;whiteSpace=wrap;connectable=0;fillColor=none;top=0;left=0;bottom=0;right=0;align=left;spacingLeft=6;overflow=hidden;" parent="129" vertex="1">
                    <mxGeometry x="30" width="210" height="30" as="geometry"/>
                </mxCell>
                <mxCell id="213" value="" style="shape=partialRectangle;html=1;whiteSpace=wrap;collapsible=0;dropTarget=0;pointerEvents=0;fillColor=none;top=0;left=0;bottom=0;right=0;points=[[0,0.5],[1,0.5]];portConstraint=eastwest;" parent="119" vertex="1">
                    <mxGeometry y="150" width="240" height="30" as="geometry"/>
                </mxCell>
                <mxCell id="214" value="" style="shape=partialRectangle;html=1;whiteSpace=wrap;connectable=0;fillColor=none;top=0;left=0;bottom=0;right=0;overflow=hidden;" parent="213" vertex="1">
                    <mxGeometry width="30" height="30" as="geometry"/>
                </mxCell>
                <mxCell id="215" value="created_at : date" style="shape=partialRectangle;html=1;whiteSpace=wrap;connectable=0;fillColor=none;top=0;left=0;bottom=0;right=0;align=left;spacingLeft=6;overflow=hidden;" parent="213" vertex="1">
                    <mxGeometry x="30" width="210" height="30" as="geometry"/>
                </mxCell>
                <mxCell id="216" value="" style="shape=partialRectangle;html=1;whiteSpace=wrap;collapsible=0;dropTarget=0;pointerEvents=0;fillColor=none;top=0;left=0;bottom=0;right=0;points=[[0,0.5],[1,0.5]];portConstraint=eastwest;" parent="119" vertex="1">
                    <mxGeometry y="180" width="240" height="30" as="geometry"/>
                </mxCell>
                <mxCell id="217" value="" style="shape=partialRectangle;html=1;whiteSpace=wrap;connectable=0;fillColor=none;top=0;left=0;bottom=0;right=0;overflow=hidden;" parent="216" vertex="1">
                    <mxGeometry width="30" height="30" as="geometry"/>
                </mxCell>
                <mxCell id="218" value="updated_at : date" style="shape=partialRectangle;html=1;whiteSpace=wrap;connectable=0;fillColor=none;top=0;left=0;bottom=0;right=0;align=left;spacingLeft=6;overflow=hidden;" parent="216" vertex="1">
                    <mxGeometry x="30" width="210" height="30" as="geometry"/>
                </mxCell>
                <mxCell id="134" value="AuthorManagements" style="shape=table;html=1;whiteSpace=wrap;startSize=30;container=1;collapsible=0;childLayout=tableLayout;fixedRows=1;rowLines=0;fontStyle=1;align=center;" parent="1" vertex="1">
                    <mxGeometry x="520" y="600" width="240" height="150" as="geometry"/>
                </mxCell>
                <mxCell id="135" value="" style="shape=partialRectangle;html=1;whiteSpace=wrap;collapsible=0;dropTarget=0;pointerEvents=0;fillColor=none;top=0;left=0;bottom=1;right=0;points=[[0,0.5],[1,0.5]];portConstraint=eastwest;" parent="134" vertex="1">
                    <mxGeometry y="30" width="240" height="30" as="geometry"/>
                </mxCell>
                <mxCell id="136" value="PK" style="shape=partialRectangle;html=1;whiteSpace=wrap;connectable=0;fillColor=none;top=0;left=0;bottom=0;right=0;overflow=hidden;" parent="135" vertex="1">
                    <mxGeometry width="30" height="30" as="geometry"/>
                </mxCell>
                <mxCell id="137" value="id : int (incremental)" style="shape=partialRectangle;html=1;whiteSpace=wrap;connectable=0;fillColor=none;top=0;left=0;bottom=0;right=0;align=left;spacingLeft=6;overflow=hidden;" parent="135" vertex="1">
                    <mxGeometry x="30" width="210" height="30" as="geometry"/>
                </mxCell>
                <mxCell id="138" value="" style="shape=partialRectangle;html=1;whiteSpace=wrap;collapsible=0;dropTarget=0;pointerEvents=0;fillColor=none;top=0;left=0;bottom=0;right=0;points=[[0,0.5],[1,0.5]];portConstraint=eastwest;" parent="134" vertex="1">
                    <mxGeometry y="60" width="240" height="30" as="geometry"/>
                </mxCell>
                <mxCell id="139" value="FK" style="shape=partialRectangle;html=1;whiteSpace=wrap;connectable=0;fillColor=none;top=0;left=0;bottom=0;right=0;overflow=hidden;" parent="138" vertex="1">
                    <mxGeometry width="30" height="30" as="geometry"/>
                </mxCell>
                <mxCell id="140" value="paper_id : int" style="shape=partialRectangle;html=1;whiteSpace=wrap;connectable=0;fillColor=none;top=0;left=0;bottom=0;right=0;align=left;spacingLeft=6;overflow=hidden;" parent="138" vertex="1">
                    <mxGeometry x="30" width="210" height="30" as="geometry"/>
                </mxCell>
                <mxCell id="141" value="" style="shape=partialRectangle;html=1;whiteSpace=wrap;collapsible=0;dropTarget=0;pointerEvents=0;fillColor=none;top=0;left=0;bottom=0;right=0;points=[[0,0.5],[1,0.5]];portConstraint=eastwest;" parent="134" vertex="1">
                    <mxGeometry y="90" width="240" height="30" as="geometry"/>
                </mxCell>
                <mxCell id="142" value="" style="shape=partialRectangle;html=1;whiteSpace=wrap;connectable=0;fillColor=none;top=0;left=0;bottom=0;right=0;overflow=hidden;" parent="141" vertex="1">
                    <mxGeometry width="30" height="30" as="geometry"/>
                </mxCell>
                <mxCell id="143" value="author_id : int" style="shape=partialRectangle;html=1;whiteSpace=wrap;connectable=0;fillColor=none;top=0;left=0;bottom=0;right=0;align=left;spacingLeft=6;overflow=hidden;" parent="141" vertex="1">
                    <mxGeometry x="30" width="210" height="30" as="geometry"/>
                </mxCell>
                <mxCell id="149" value="" style="shape=partialRectangle;html=1;whiteSpace=wrap;collapsible=0;dropTarget=0;pointerEvents=0;fillColor=none;top=0;left=0;bottom=0;right=0;points=[[0,0.5],[1,0.5]];portConstraint=eastwest;" parent="134" vertex="1">
                    <mxGeometry y="120" width="240" height="30" as="geometry"/>
                </mxCell>
                <mxCell id="150" value="" style="shape=partialRectangle;html=1;whiteSpace=wrap;connectable=0;fillColor=none;top=0;left=0;bottom=0;right=0;overflow=hidden;" parent="149" vertex="1">
                    <mxGeometry width="30" height="30" as="geometry"/>
                </mxCell>
                <mxCell id="151" value="order : int (default : 0)" style="shape=partialRectangle;html=1;whiteSpace=wrap;connectable=0;fillColor=none;top=0;left=0;bottom=0;right=0;align=left;spacingLeft=6;overflow=hidden;" parent="149" vertex="1">
                    <mxGeometry x="30" width="210" height="30" as="geometry"/>
                </mxCell>
                <mxCell id="67" value="ClassificationManagements" style="shape=table;html=1;whiteSpace=wrap;startSize=30;container=1;collapsible=0;childLayout=tableLayout;fixedRows=1;rowLines=0;fontStyle=1;align=center;" parent="1" vertex="1">
                    <mxGeometry x="520" y="130" width="240" height="120" as="geometry"/>
                </mxCell>
                <mxCell id="68" value="" style="shape=partialRectangle;html=1;whiteSpace=wrap;collapsible=0;dropTarget=0;pointerEvents=0;fillColor=none;top=0;left=0;bottom=1;right=0;points=[[0,0.5],[1,0.5]];portConstraint=eastwest;" parent="67" vertex="1">
                    <mxGeometry y="30" width="240" height="30" as="geometry"/>
                </mxCell>
                <mxCell id="69" value="PK" style="shape=partialRectangle;html=1;whiteSpace=wrap;connectable=0;fillColor=none;top=0;left=0;bottom=0;right=0;overflow=hidden;" parent="68" vertex="1">
                    <mxGeometry width="30" height="30" as="geometry"/>
                </mxCell>
                <mxCell id="70" value="id : int (incremental)" style="shape=partialRectangle;html=1;whiteSpace=wrap;connectable=0;fillColor=none;top=0;left=0;bottom=0;right=0;align=left;spacingLeft=6;overflow=hidden;" parent="68" vertex="1">
                    <mxGeometry x="30" width="210" height="30" as="geometry"/>
                </mxCell>
                <mxCell id="71" value="" style="shape=partialRectangle;html=1;whiteSpace=wrap;collapsible=0;dropTarget=0;pointerEvents=0;fillColor=none;top=0;left=0;bottom=0;right=0;points=[[0,0.5],[1,0.5]];portConstraint=eastwest;" parent="67" vertex="1">
                    <mxGeometry y="60" width="240" height="30" as="geometry"/>
                </mxCell>
                <mxCell id="72" value="FK" style="shape=partialRectangle;html=1;whiteSpace=wrap;connectable=0;fillColor=none;top=0;left=0;bottom=0;right=0;overflow=hidden;" parent="71" vertex="1">
                    <mxGeometry width="30" height="30" as="geometry"/>
                </mxCell>
                <mxCell id="73" value="paper_id : int" style="shape=partialRectangle;html=1;whiteSpace=wrap;connectable=0;fillColor=none;top=0;left=0;bottom=0;right=0;align=left;spacingLeft=6;overflow=hidden;" parent="71" vertex="1">
                    <mxGeometry x="30" width="210" height="30" as="geometry"/>
                </mxCell>
                <mxCell id="74" value="" style="shape=partialRectangle;html=1;whiteSpace=wrap;collapsible=0;dropTarget=0;pointerEvents=0;fillColor=none;top=0;left=0;bottom=0;right=0;points=[[0,0.5],[1,0.5]];portConstraint=eastwest;" parent="67" vertex="1">
                    <mxGeometry y="90" width="240" height="30" as="geometry"/>
                </mxCell>
                <mxCell id="75" value="" style="shape=partialRectangle;html=1;whiteSpace=wrap;connectable=0;fillColor=none;top=0;left=0;bottom=0;right=0;overflow=hidden;" parent="74" vertex="1">
                    <mxGeometry width="30" height="30" as="geometry"/>
                </mxCell>
                <mxCell id="76" value="classification_id : int" style="shape=partialRectangle;html=1;whiteSpace=wrap;connectable=0;fillColor=none;top=0;left=0;bottom=0;right=0;align=left;spacingLeft=6;overflow=hidden;" parent="74" vertex="1">
                    <mxGeometry x="30" width="210" height="30" as="geometry"/>
                </mxCell>
                <mxCell id="106" value="AffiriationManagements" style="shape=table;html=1;whiteSpace=wrap;startSize=30;container=1;collapsible=0;childLayout=tableLayout;fixedRows=1;rowLines=0;fontStyle=1;align=center;" parent="1" vertex="1">
                    <mxGeometry x="520" y="360" width="240" height="120" as="geometry"/>
                </mxCell>
                <mxCell id="107" value="" style="shape=partialRectangle;html=1;whiteSpace=wrap;collapsible=0;dropTarget=0;pointerEvents=0;fillColor=none;top=0;left=0;bottom=1;right=0;points=[[0,0.5],[1,0.5]];portConstraint=eastwest;" parent="106" vertex="1">
                    <mxGeometry y="30" width="240" height="30" as="geometry"/>
                </mxCell>
                <mxCell id="108" value="PK" style="shape=partialRectangle;html=1;whiteSpace=wrap;connectable=0;fillColor=none;top=0;left=0;bottom=0;right=0;overflow=hidden;" parent="107" vertex="1">
                    <mxGeometry width="30" height="30" as="geometry"/>
                </mxCell>
                <mxCell id="109" value="id : int (incremental)" style="shape=partialRectangle;html=1;whiteSpace=wrap;connectable=0;fillColor=none;top=0;left=0;bottom=0;right=0;align=left;spacingLeft=6;overflow=hidden;" parent="107" vertex="1">
                    <mxGeometry x="30" width="210" height="30" as="geometry"/>
                </mxCell>
                <mxCell id="110" value="" style="shape=partialRectangle;html=1;whiteSpace=wrap;collapsible=0;dropTarget=0;pointerEvents=0;fillColor=none;top=0;left=0;bottom=0;right=0;points=[[0,0.5],[1,0.5]];portConstraint=eastwest;" parent="106" vertex="1">
                    <mxGeometry y="60" width="240" height="30" as="geometry"/>
                </mxCell>
                <mxCell id="111" value="FK" style="shape=partialRectangle;html=1;whiteSpace=wrap;connectable=0;fillColor=none;top=0;left=0;bottom=0;right=0;overflow=hidden;" parent="110" vertex="1">
                    <mxGeometry width="30" height="30" as="geometry"/>
                </mxCell>
                <mxCell id="112" value="paper_id : int" style="shape=partialRectangle;html=1;whiteSpace=wrap;connectable=0;fillColor=none;top=0;left=0;bottom=0;right=0;align=left;spacingLeft=6;overflow=hidden;" parent="110" vertex="1">
                    <mxGeometry x="30" width="210" height="30" as="geometry"/>
                </mxCell>
                <mxCell id="113" value="" style="shape=partialRectangle;html=1;whiteSpace=wrap;collapsible=0;dropTarget=0;pointerEvents=0;fillColor=none;top=0;left=0;bottom=0;right=0;points=[[0,0.5],[1,0.5]];portConstraint=eastwest;" parent="106" vertex="1">
                    <mxGeometry y="90" width="240" height="30" as="geometry"/>
                </mxCell>
                <mxCell id="114" value="" style="shape=partialRectangle;html=1;whiteSpace=wrap;connectable=0;fillColor=none;top=0;left=0;bottom=0;right=0;overflow=hidden;" parent="113" vertex="1">
                    <mxGeometry width="30" height="30" as="geometry"/>
                </mxCell>
                <mxCell id="115" value="attribute_id : int" style="shape=partialRectangle;html=1;whiteSpace=wrap;connectable=0;fillColor=none;top=0;left=0;bottom=0;right=0;align=left;spacingLeft=6;overflow=hidden;" parent="113" vertex="1">
                    <mxGeometry x="30" width="210" height="30" as="geometry"/>
                </mxCell>
                <mxCell id="93" value="Affiriations" style="shape=table;html=1;whiteSpace=wrap;startSize=30;container=1;collapsible=0;childLayout=tableLayout;fixedRows=1;rowLines=0;fontStyle=1;align=center;" parent="1" vertex="1">
                    <mxGeometry x="840" y="360" width="240" height="210" as="geometry"/>
                </mxCell>
                <mxCell id="94" value="" style="shape=partialRectangle;html=1;whiteSpace=wrap;collapsible=0;dropTarget=0;pointerEvents=0;fillColor=none;top=0;left=0;bottom=1;right=0;points=[[0,0.5],[1,0.5]];portConstraint=eastwest;" parent="93" vertex="1">
                    <mxGeometry y="30" width="240" height="30" as="geometry"/>
                </mxCell>
                <mxCell id="95" value="PK" style="shape=partialRectangle;html=1;whiteSpace=wrap;connectable=0;fillColor=none;top=0;left=0;bottom=0;right=0;overflow=hidden;" parent="94" vertex="1">
                    <mxGeometry width="30" height="30" as="geometry"/>
                </mxCell>
                <mxCell id="96" value="id : int (incremental)" style="shape=partialRectangle;html=1;whiteSpace=wrap;connectable=0;fillColor=none;top=0;left=0;bottom=0;right=0;align=left;spacingLeft=6;overflow=hidden;" parent="94" vertex="1">
                    <mxGeometry x="30" width="210" height="30" as="geometry"/>
                </mxCell>
                <mxCell id="97" value="" style="shape=partialRectangle;html=1;whiteSpace=wrap;collapsible=0;dropTarget=0;pointerEvents=0;fillColor=none;top=0;left=0;bottom=0;right=0;points=[[0,0.5],[1,0.5]];portConstraint=eastwest;" parent="93" vertex="1">
                    <mxGeometry y="60" width="240" height="30" as="geometry"/>
                </mxCell>
                <mxCell id="98" value="FK" style="shape=partialRectangle;html=1;whiteSpace=wrap;connectable=0;fillColor=none;top=0;left=0;bottom=0;right=0;overflow=hidden;" parent="97" vertex="1">
                    <mxGeometry width="30" height="30" as="geometry"/>
                </mxCell>
                <mxCell id="99" value="name : string" style="shape=partialRectangle;html=1;whiteSpace=wrap;connectable=0;fillColor=none;top=0;left=0;bottom=0;right=0;align=left;spacingLeft=6;overflow=hidden;" parent="97" vertex="1">
                    <mxGeometry x="30" width="210" height="30" as="geometry"/>
                </mxCell>
                <mxCell id="103" value="" style="shape=partialRectangle;html=1;whiteSpace=wrap;collapsible=0;dropTarget=0;pointerEvents=0;fillColor=none;top=0;left=0;bottom=0;right=0;points=[[0,0.5],[1,0.5]];portConstraint=eastwest;" parent="93" vertex="1">
                    <mxGeometry y="90" width="240" height="30" as="geometry"/>
                </mxCell>
                <mxCell id="104" value="" style="shape=partialRectangle;html=1;whiteSpace=wrap;connectable=0;fillColor=none;top=0;left=0;bottom=0;right=0;overflow=hidden;" parent="103" vertex="1">
                    <mxGeometry width="30" height="30" as="geometry"/>
                </mxCell>
                <mxCell id="105" value="description : longText (nullable)" style="shape=partialRectangle;html=1;whiteSpace=wrap;connectable=0;fillColor=none;top=0;left=0;bottom=0;right=0;align=left;spacingLeft=6;overflow=hidden;" parent="103" vertex="1">
                    <mxGeometry x="30" width="210" height="30" as="geometry"/>
                </mxCell>
                <mxCell id="179" value="" style="shape=partialRectangle;html=1;whiteSpace=wrap;collapsible=0;dropTarget=0;pointerEvents=0;fillColor=none;top=0;left=0;bottom=0;right=0;points=[[0,0.5],[1,0.5]];portConstraint=eastwest;" parent="93" vertex="1">
                    <mxGeometry y="120" width="240" height="30" as="geometry"/>
                </mxCell>
                <mxCell id="180" value="" style="shape=partialRectangle;html=1;whiteSpace=wrap;connectable=0;fillColor=none;top=0;left=0;bottom=0;right=0;overflow=hidden;" parent="179" vertex="1">
                    <mxGeometry width="30" height="30" as="geometry"/>
                </mxCell>
                <mxCell id="181" value="attributes : string (nullable)" style="shape=partialRectangle;html=1;whiteSpace=wrap;connectable=0;fillColor=none;top=0;left=0;bottom=0;right=0;align=left;spacingLeft=6;overflow=hidden;" parent="179" vertex="1">
                    <mxGeometry x="30" width="210" height="30" as="geometry"/>
                </mxCell>
                <mxCell id="207" value="" style="shape=partialRectangle;html=1;whiteSpace=wrap;collapsible=0;dropTarget=0;pointerEvents=0;fillColor=none;top=0;left=0;bottom=0;right=0;points=[[0,0.5],[1,0.5]];portConstraint=eastwest;" parent="93" vertex="1">
                    <mxGeometry y="150" width="240" height="30" as="geometry"/>
                </mxCell>
                <mxCell id="208" value="" style="shape=partialRectangle;html=1;whiteSpace=wrap;connectable=0;fillColor=none;top=0;left=0;bottom=0;right=0;overflow=hidden;" parent="207" vertex="1">
                    <mxGeometry width="30" height="30" as="geometry"/>
                </mxCell>
                <mxCell id="209" value="cteated_at : date" style="shape=partialRectangle;html=1;whiteSpace=wrap;connectable=0;fillColor=none;top=0;left=0;bottom=0;right=0;align=left;spacingLeft=6;overflow=hidden;" parent="207" vertex="1">
                    <mxGeometry x="30" width="210" height="30" as="geometry"/>
                </mxCell>
                <mxCell id="210" value="" style="shape=partialRectangle;html=1;whiteSpace=wrap;collapsible=0;dropTarget=0;pointerEvents=0;fillColor=none;top=0;left=0;bottom=0;right=0;points=[[0,0.5],[1,0.5]];portConstraint=eastwest;" parent="93" vertex="1">
                    <mxGeometry y="180" width="240" height="30" as="geometry"/>
                </mxCell>
                <mxCell id="211" value="" style="shape=partialRectangle;html=1;whiteSpace=wrap;connectable=0;fillColor=none;top=0;left=0;bottom=0;right=0;overflow=hidden;" parent="210" vertex="1">
                    <mxGeometry width="30" height="30" as="geometry"/>
                </mxCell>
                <mxCell id="212" value="updated_at :date" style="shape=partialRectangle;html=1;whiteSpace=wrap;connectable=0;fillColor=none;top=0;left=0;bottom=0;right=0;align=left;spacingLeft=6;overflow=hidden;" parent="210" vertex="1">
                    <mxGeometry x="30" width="210" height="30" as="geometry"/>
                </mxCell>
            </root>
        </mxGraphModel>
    </diagram>
</mxfile>